<?xml version="1.0" encoding="UTF-8" standalone="no"?>
<svg
   xmlns:dc="http://purl.org/dc/elements/1.1/"
   xmlns:cc="http://creativecommons.org/ns#"
   xmlns:rdf="http://www.w3.org/1999/02/22-rdf-syntax-ns#"
   xmlns:svg="http://www.w3.org/2000/svg"
   xmlns="http://www.w3.org/2000/svg"
   xmlns:sodipodi="http://sodipodi.sourceforge.net/DTD/sodipodi-0.dtd"
   xmlns:inkscape="http://www.inkscape.org/namespaces/inkscape"
   width="30mm"
   height="30mm"
   viewBox="0 0 30 30"
   version="1.1"
   id="svg8"
   inkscape:version="1.0.2 (e86c870879, 2021-01-15)"
   sodipodi:docname="hook1.svg">
  <defs
     id="defs2" />
  <sodipodi:namedview
     id="base"
     pagecolor="#ffffff"
     bordercolor="#666666"
     borderopacity="1.0"
     inkscape:pageopacity="0.0"
     inkscape:pageshadow="2"
     inkscape:zoom="3.959798"
     inkscape:cx="44.810868"
     inkscape:cy="61.588927"
     inkscape:document-units="mm"
     inkscape:current-layer="layer1"
     inkscape:document-rotation="0"
     showgrid="false"
     inkscape:window-width="1920"
     inkscape:window-height="1025"
     inkscape:window-x="0"
     inkscape:window-y="0"
     inkscape:window-maximized="1" />
  <metadata
     id="metadata5">
    <rdf:RDF>
      <cc:Work
         rdf:about="">
        <dc:format>image/svg+xml</dc:format>
        <dc:type
           rdf:resource="http://purl.org/dc/dcmitype/StillImage" />
        <dc:title></dc:title>
      </cc:Work>
    </rdf:RDF>
  </metadata>
  <g
     inkscape:label="Layer 1"
     inkscape:groupmode="layer"
     id="layer1">
    <path
       style="fill:#dcdcdc;fill-opacity:1;stroke:#000000;stroke-width:0.338804px;stroke-linecap:butt;stroke-linejoin:miter;stroke-opacity:1"
       d="m 8.129238,18.297767 19.530171,1.260037 c 0,0 0.972729,-7.235568 -6.382415,-7.500348 C 13.921852,11.792674 8.4834654,11.66065 8.4834654,11.66065 c 0,0 4.7189586,3.310124 -0.3542274,6.637117 z"
       id="path863"
       sodipodi:nodetypes="cc" />
    <path
       style="fill:#b4b4b4;fill-opacity:1;stroke:#000000;stroke-width:0.338804px;stroke-linecap:butt;stroke-linejoin:miter;stroke-opacity:1"
       d="m 6.3775228,12.146746 c 0,0 11.7181942,0.443248 16.0565272,1.105964 4.338334,0.662728 4.39679,6.710687 4.39679,6.710687 l 2.087039,0.09239 C 28.249818,14.442469 26.204988,11.835871 22.410404,11.236919 17.890199,10.523439 12.281445,10.432445 12.281445,10.432445 l -0.08469,0.684896 -0.702702,-0.0087 -0.290101,-0.688986 -4.6732386,-0.248463 -0.1531906,1.975554"
       id="path861"
       sodipodi:nodetypes="csccsc" />
    <path
       id="path851"
       style="fill:#808080;fill-opacity:1;fill-rule:evenodd;stroke:#000000;stroke-width:0.338804;stroke-opacity:1"
       d="m 6.5307082,10.171228 c -2.6311397,0.007 -4.7604155,2.141885 -4.7604616,4.773034 -3.1e-4,2.63631 2.1367251,4.773641 4.7730347,4.773697 2.6363094,-5.6e-5 4.7733447,-2.137387 4.7730347,-4.773697 -5.5e-5,-2.636051 -2.1369833,-4.772978 -4.7730347,-4.773034 -0.00419,-5e-6 -0.00838,-5e-6 -0.012573,0 z m -0.1531855,1.975518 c 1.5332334,1.56e-4 2.776053,1.257788 2.775943,2.80903 1.1e-4,1.551242 -1.1384918,2.815889 -2.6717251,2.816044 -1.5334919,2.15e-4 -2.7767141,-1.257526 -2.776605,-2.809029 -1.094e-4,-1.551503 1.1388953,-2.816259 2.6723871,-2.816045 z"
       sodipodi:nodetypes="ccccccccccc" />
  </g>
</svg>
